# xmcd
#
# Track frame offsets: 
#        150
#        18677
#        27926
#        42976
#        56015
#        68652
#        75969
#        85714
#        95274
#        107384
#        116914
#        131653
#        145798
#        162074
#        173661
#        182479
#        195801
#
# Disc length: 2773 seconds
#
# Revision: 0
# Processed by: cddbd v1.5.2PL0 Copyright (c) Steve Scherf et al.
# Submitted via: ExactAudioCopyFreeDBPlugin 1.0
#
DISCID=ca0ad311
DTITLE=Various Artist - We're Getting Closer To The Grave Each Day
DYEAR=2004
DGENRE=Country
TTITLE0=Arizona H-Bombs - Ramblin' Man
TTITLE1=Badnads - I'll Be A Bachelor Til I Die
TTITLE2=Before I Hang - Jambalaya
TTITLE3=Bootleg Bill - Hey Good Lookin'
TTITLE4=Born Bavarian - Calling You
TTITLE5=Coffinshakers, The - Angel Of Death
TTITLE6=Faggot Kings, The - Pan American
TTITLE7=Genocide Superstars - I Don't Care
TTITLE8=Greyhound Dogs - Lost Highway
TTITLE9=Hammer Cocks - Settin' The Woods On Fire
TTITLE10=Hammerlock - Mind Your Own Business_I Got Rights
TTITLE11=Hellstomper - Move It On Over
TTITLE12=Karamasov Bros, The - Six More Miles
TTITLE13=Love And A 45 - I Saw The Light
TTITLE14=Rancid Vat - I'll Never Get Out Of This World Alive
TTITLE15=V8 Wankers - Long Gone Lonesome Blues
TTITLE16=Wyldfyre - Alone And Forsaken
EXTD=
EXTT0=
EXTT1=
EXTT2=
EXTT3=
EXTT4=
EXTT5=
EXTT6=
EXTT7=
EXTT8=
EXTT9=
EXTT10=
EXTT11=
EXTT12=
EXTT13=
EXTT14=
EXTT15=
EXTT16=
PLAYORDER=
